<?xml version="1.0" encoding="UTF-8"?> <svg xmlns="http://www.w3.org/2000/svg" xmlns:xlink="http://www.w3.org/1999/xlink" width="598px" height="587px" viewBox="0 0 598 587" version="1.1"><!-- Generator: Sketch 63.1 (92452) - https://sketch.com --><title>Group 2</title><desc>Created with Sketch.</desc><g id="Sitio-Completo" stroke="none" stroke-width="1" fill="none" fill-rule="evenodd"><g id="Inicio" transform="translate(-100.000000, -868.000000)" fill-rule="nonzero"><g id="Group-2" transform="translate(100.000000, 868.000000)"><g id="Logo-POBLAUTOS-Principal" opacity="0.45" fill="#D2D9E3"><path d="M293,0 C289.735376,0 286.470752,0 284.022284,0 L284.022284,0 L244.846797,0 L244.846797,0 L108.548747,0 L146.091922,39.1877608 C124.871866,51.433936 104.467967,67.7621697 85.6963788,86.5396384 C28.5654596,143.688456 4.54747351e-13,213.083449 4.54747351e-13,293.908206 C4.54747351e-13,374.732962 28.5654596,444.127955 85.6963788,501.276773 C142.827298,558.425591 212.200557,587 293,587 C373.799443,587 443.172702,558.425591 500.303621,501.276773 C557.43454,444.127955 586,374.732962 586,293.908206 C586,213.083449 557.43454,143.688456 500.303621,86.5396384 C443.172702,28.5744089 373.799443,0 293,0 Z M428.481894,428.616134 C390.938719,466.171071 346.050139,484.94854 293,484.94854 C240.766017,484.94854 195.061281,466.171071 157.518106,428.616134 C119.97493,391.061196 101.203343,346.158554 101.203343,293.091794 C101.203343,240.025035 119.97493,195.122392 157.518106,157.567455 C195.061281,120.012517 239.949861,101.235049 293,101.235049 C345.233983,101.235049 390.938719,120.012517 428.481894,157.567455 C466.02507,195.122392 484.796657,240.025035 484.796657,293.091794 C484.796657,345.342142 466.02507,391.061196 428.481894,428.616134 Z" id="Shape"></path></g><path d="M33.84,147 L33.84,127.76 L33.68,120.8 L42.76,147 L45.36,147 L54.44,120.8 L54.32,127.76 L54.32,147 L57.2,147 L57.2,115.8 L53.16,115.8 L44.08,142.04 L35,115.8 L30.96,115.8 L30.96,147 L33.84,147 Z M75.2266667,113.4 L77.7066667,109 L74.7466667,109 L72.3466667,113.4 L75.2266667,113.4 Z M65.8666667,147 L68.1066667,139 L79.5066667,139 L81.7466667,147 L84.8666667,147 L75.8666667,115.48 L71.7466667,115.48 L62.7466667,147 L65.8666667,147 Z M78.7466667,136.4 L68.8266667,136.4 L73.7866667,118.64 L78.7466667,136.4 Z M99.0133333,147.44 C105.253333,147.44 109.213333,144.16 109.213333,138.64 L109.213333,138.24 C109.213333,133.44 106.413333,130.68 99.6133333,129.76 C93.8933333,128.96 92.1733333,127 92.1733333,123.68 L92.1733333,123.36 C92.1733333,120 95.0533333,117.96 98.8533333,117.96 L99.1333333,117.96 C103.893333,117.96 105.973333,120.44 105.973333,126.36 L108.853333,126.36 L108.853333,125.4 C108.853333,118.96 105.973333,115.36 99.0133333,115.36 C93.0933333,115.36 89.2133333,118.52 89.2133333,123.72 L89.2133333,124.12 C89.2133333,128.24 91.7333333,131.28 98.5333333,132.2 C103.973333,132.96 106.253333,134.8 106.253333,138.48 L106.253333,138.84 C106.253333,142.64 103.413333,144.84 99.1733333,144.84 L98.8933333,144.84 C94.6933333,144.84 91.7333333,142.32 91.7333333,136.84 L88.8533333,136.84 L88.8533333,137.24 C88.8533333,143.68 92.4133333,147.44 99.0133333,147.44 Z" id="MÁS" fill="#415364"></path><path d="M81.2,205 C88.8,205 93.28,201 93.28,190.2 L93.28,188.6 C93.28,177.8 88.8,173.8 81.2,173.8 L72.96,173.8 L72.96,205 L81.2,205 Z M80.96,202.4 L75.84,202.4 L75.84,176.4 L80.96,176.4 C86.96,176.4 90.32,179.72 90.32,188.6 L90.32,190.2 C90.32,199.08 86.96,202.4 80.96,202.4 Z M117.386667,205 L117.386667,202.4 L102.866667,202.4 L102.866667,190.36 L115.386667,190.36 L115.386667,187.8 L102.866667,187.8 L102.866667,176.4 L117.386667,176.4 L117.386667,173.8 L99.9866667,173.8 L99.9866667,205 L117.386667,205 Z" id="DE" fill="#415364"></path><path d="M450.936667,429 C454.736667,429 456.976667,427 456.976667,421.6 L456.976667,420.8 C456.976667,415.4 454.736667,413.4 450.936667,413.4 L446.816667,413.4 L446.816667,429 L450.936667,429 Z M450.816667,427.7 L448.256667,427.7 L448.256667,414.7 L450.816667,414.7 C453.816667,414.7 455.496667,416.36 455.496667,420.8 L455.496667,421.6 C455.496667,426.04 453.816667,427.7 450.816667,427.7 Z M469.03,429 L469.03,427.7 L461.77,427.7 L461.77,421.68 L468.03,421.68 L468.03,420.4 L461.77,420.4 L461.77,414.7 L469.03,414.7 L469.03,413.4 L460.33,413.4 L460.33,429 L469.03,429 Z M485.476667,429 L485.476667,427.7 L478.216667,427.7 L478.216667,421.68 L484.476667,421.68 L484.476667,420.4 L478.216667,420.4 L478.216667,414.7 L485.476667,414.7 L485.476667,413.4 L476.776667,413.4 L476.776667,429 L485.476667,429 Z M489.27,429 L493.13,422.14 L497.01,429 L498.65,429 L494.11,421.06 L498.65,413.4 L496.95,413.4 L493.13,419.96 L489.31,413.4 L487.63,413.4 L492.15,421.06 L487.63,429 L489.27,429 Z M502.923333,429 L502.923333,422.66 L505.803333,422.66 C508.023333,422.66 510.583333,421.82 510.583333,418.24 L510.583333,417.84 C510.583333,414.24 508.023333,413.4 505.803333,413.4 L501.483333,413.4 L501.483333,429 L502.923333,429 Z M505.843333,421.36 L502.923333,421.36 L502.923333,414.7 L505.843333,414.7 C507.183333,414.7 509.103333,415.2 509.103333,417.88 L509.103333,418.18 C509.103333,420.86 507.183333,421.36 505.843333,421.36 Z M522.376667,429 L522.376667,427.7 L515.116667,427.7 L515.116667,421.68 L521.376667,421.68 L521.376667,420.4 L515.116667,420.4 L515.116667,414.7 L522.376667,414.7 L522.376667,413.4 L513.676667,413.4 L513.676667,429 L522.376667,429 Z M526.83,429 L526.83,422.66 L529.71,422.66 C529.95,422.66 530.19,422.66 530.43,422.64 L532.91,429 L534.49,429 L531.79,422.36 C533.27,421.88 534.49,420.72 534.49,418.24 L534.49,417.84 C534.49,414.24 531.93,413.4 529.71,413.4 L525.39,413.4 L525.39,429 L526.83,429 Z M529.75,421.36 L526.83,421.36 L526.83,414.7 L529.75,414.7 C531.09,414.7 533.01,415.2 533.01,417.88 L533.01,418.18 C533.01,420.86 531.09,421.36 529.75,421.36 Z M539.343333,429 L539.343333,413.4 L537.903333,413.4 L537.903333,429 L539.343333,429 Z M551.836667,429 L551.836667,427.7 L544.576667,427.7 L544.576667,421.68 L550.836667,421.68 L550.836667,420.4 L544.576667,420.4 L544.576667,414.7 L551.836667,414.7 L551.836667,413.4 L543.136667,413.4 L543.136667,429 L551.836667,429 Z M556.21,429 L556.21,419.46 L556.13,415.84 L563.51,429 L565.07,429 L565.07,413.4 L563.71,413.4 L563.71,422.94 L563.77,426.56 L556.41,413.4 L554.85,413.4 L554.85,429 L556.21,429 Z M573.723333,429.22 C577.043333,429.22 578.643333,427.4 578.643333,424.12 L578.643333,423.92 L577.163333,423.92 C577.163333,426.5 576.183333,427.92 573.843333,427.92 L573.703333,427.92 C571.083333,427.92 569.903333,426.04 569.903333,421.6 L569.903333,420.8 C569.903333,416.36 571.103333,414.48 573.703333,414.48 L573.843333,414.48 C576.183333,414.48 577.163333,415.86 577.163333,419.08 L578.643333,419.08 L578.643333,418.52 C578.643333,415 577.043333,413.18 573.723333,413.18 C570.143333,413.18 568.423333,415.4 568.423333,420.8 L568.423333,421.6 C568.423333,427 570.143333,429.22 573.723333,429.22 Z M583.396667,429 L583.396667,413.4 L581.956667,413.4 L581.956667,429 L583.396667,429 Z M587.85,429 L588.97,425 L594.67,425 L595.79,429 L597.35,429 L592.85,413.24 L590.79,413.24 L586.29,429 L587.85,429 Z M594.29,423.7 L589.33,423.7 L591.81,414.82 L594.29,423.7 Z" id="DEEXPERIENCIA" fill="#415364"></path><path d="M450.683333,395 L453.483333,385 L467.733333,385 L470.533333,395 L474.433333,395 L463.183333,355.6 L458.033333,355.6 L446.783333,395 L450.683333,395 Z M466.783333,381.75 L454.383333,381.75 L460.583333,359.55 L466.783333,381.75 Z M497.816667,352.85 C500.116667,352.85 501.766667,351.45 501.766667,348.2 L499.266667,348.2 C499.266667,349.85 498.416667,350.35 497.416667,350.35 C495.466667,350.35 493.616667,347.65 490.516667,347.65 C488.216667,347.65 486.566667,349.05 486.566667,352.3 L489.066667,352.3 C489.066667,350.65 489.916667,350.15 490.916667,350.15 C492.866667,350.15 494.716667,352.85 497.816667,352.85 Z M484.816667,395 L484.816667,371.15 L484.616667,362.1 L503.066667,395 L506.966667,395 L506.966667,356 L503.566667,356 L503.566667,379.85 L503.716667,388.9 L485.316667,356 L481.416667,356 L481.416667,395 L484.816667,395 Z M528.7,395.55 C537.65,395.55 542.1,390 542.1,376.5 L542.1,374.5 C542.1,361 537.65,355.45 528.7,355.45 C519.8,355.45 515.35,361 515.35,374.5 L515.35,376.5 C515.35,390 519.8,395.55 528.7,395.55 Z M528.9,392.3 L528.55,392.3 C522,392.3 519.05,387.6 519.05,376.5 L519.05,374.5 C519.05,363.4 522,358.7 528.55,358.7 L528.9,358.7 C535.45,358.7 538.4,363.4 538.4,374.5 L538.4,376.5 C538.4,387.6 535.45,392.3 528.9,392.3 Z M561.783333,395.55 C569.583333,395.55 574.533333,391.45 574.533333,384.55 L574.533333,384.05 C574.533333,378.05 571.033333,374.6 562.533333,373.45 C555.383333,372.45 553.233333,370 553.233333,365.85 L553.233333,365.45 C553.233333,361.25 556.833333,358.7 561.583333,358.7 L561.933333,358.7 C567.883333,358.7 570.483333,361.8 570.483333,369.2 L574.083333,369.2 L574.083333,368 C574.083333,359.95 570.483333,355.45 561.783333,355.45 C554.383333,355.45 549.533333,359.4 549.533333,365.9 L549.533333,366.4 C549.533333,371.55 552.683333,375.35 561.183333,376.5 C567.983333,377.45 570.833333,379.75 570.833333,384.35 L570.833333,384.8 C570.833333,389.55 567.283333,392.3 561.983333,392.3 L561.633333,392.3 C556.383333,392.3 552.683333,389.15 552.683333,382.3 L549.083333,382.3 L549.083333,382.8 C549.083333,390.85 553.533333,395.55 561.783333,395.55 Z" id="AÑOS" fill="#415364"></path><path d="M182,430.08 C223.16,430.08 251.72,405.72 251.72,371 L251.72,366.52 C251.72,339.92 237.16,323.12 216.44,315.56 C236.32,308.56 250.32,293.16 250.32,267.4 L250.32,263.2 C250.32,229.32 226.24,205.52 182,205.52 C134.68,205.52 113.68,230.72 113.68,274.68 L113.68,281.4 L133.56,281.4 C133.56,240.24 148.96,223.44 180.6,223.44 L183.4,223.44 C211.4,223.44 230.44,239.96 230.44,265.72 L230.44,267.68 C230.44,294.84 210.28,306.6 184.8,306.6 L154,306.6 L154,324.52 L185.92,324.52 C211.68,324.52 231.84,338.24 231.84,366.24 L231.84,370.16 C231.84,398.72 208.32,412.16 183.4,412.16 L180.6,412.16 C150.36,412.16 132.16,395.08 132.16,357 L112.28,357 L112.28,360.08 C112.28,403.2 134.4,430.08 182,430.08 Z M360.266667,430.08 C407.866667,430.08 426.906667,402.08 426.906667,364.28 L426.906667,271.32 C426.906667,233.52 407.866667,205.52 360.266667,205.52 C312.666667,205.52 293.626667,233.52 293.626667,271.32 L293.626667,364.28 C293.626667,402.08 312.666667,430.08 360.266667,430.08 Z M361.106667,412.16 L359.426667,412.16 C325.266667,412.16 313.506667,392.28 313.506667,362.04 L313.506667,273.56 C313.506667,243.32 325.266667,223.44 359.426667,223.44 L361.106667,223.44 C395.266667,223.44 407.026667,243.32 407.026667,273.56 L407.026667,362.04 C407.026667,392.28 395.266667,412.16 361.106667,412.16 Z" id="30" fill="#415364"></path></g></g></g></svg> 