<?xml version="1.0" standalone="no"?>
<!DOCTYPE svg PUBLIC "-//W3C//DTD SVG 20010904//EN"
 "http://www.w3.org/TR/2001/REC-SVG-20010904/DTD/svg10.dtd">
<svg version="1.0" xmlns="http://www.w3.org/2000/svg"
 width="640.000000pt" height="163.000000pt" viewBox="0 0 640.000000 163.000000"
 preserveAspectRatio="xMidYMid meet">

<g transform="translate(0.000000,163.000000) scale(0.100000,-0.100000)"
fill="black" stroke="none">
<path d="M3445 1314 c-169 -26 -356 -78 -539 -151 -153 -60 -374 -165 -359
-170 6 -2 88 24 184 57 317 111 583 175 773 187 174 10 473 -31 886 -123 219
-48 631 -151 639 -159 11 -12 -172 -3 -239 11 -41 9 -118 17 -170 17 -101 0
-122 -3 -464 -64 -120 -21 -242 -39 -270 -40 -28 0 -71 -4 -96 -9 -28 -5 45
-7 200 -6 234 2 252 4 400 35 202 43 283 44 410 6 115 -34 244 -39 327 -11 58
19 148 79 211 139 52 51 54 63 4 38 -40 -21 -128 -45 -200 -55 -61 -9 -126 4
-462 94 -563 152 -809 200 -1050 205 -85 2 -168 1 -185 -1z"/>
<path d="M3741 1178 c-1 -10 -20 -38 -43 -62 -50 -51 -109 -73 -228 -83 -91
-8 -64 -20 47 -22 143 -2 226 34 239 105 4 20 2 45 -4 57 -9 18 -11 19 -11 5z"/>
<path d="M4090 1018 c-115 -16 -236 -20 -825 -27 -379 -5 -769 -14 -865 -21
-438 -28 -774 -95 -1061 -210 -88 -35 -198 -89 -155 -75 10 3 109 28 220 55
395 97 567 117 1101 130 905 22 1000 28 1370 91 383 65 509 99 215 57z"/>
<path d="M5236 862 c-49 -26 -94 -54 -99 -63 -9 -14 2 -31 56 -90 106 -117
109 -159 16 -243 -64 -57 -144 -94 -254 -117 -88 -18 -384 -38 -609 -40 l-111
-2 105 -9 c167 -15 663 -15 750 0 183 30 333 154 347 287 6 52 -6 67 -108 135
-46 30 -85 61 -87 67 -2 7 20 37 49 68 28 30 48 55 43 55 -5 0 -49 -22 -98
-48z"/>
<path d="M1475 689 c-126 -38 -234 -71 -240 -74 -5 -2 62 -4 151 -2 157 2 162
3 219 32 56 29 142 116 114 114 -8 0 -117 -32 -244 -70z"/>
<path d="M1070 560 c0 -25 32 -69 74 -104 54 -44 70 -70 62 -100 -7 -28 -35
-41 -151 -72 l-90 -25 100 5 c118 5 170 21 199 59 24 32 26 97 5 123 -7 9 -36
26 -64 39 -27 12 -67 36 -89 54 -43 34 -46 36 -46 21z"/>
</g>
</svg>
